<svg xmlns="http://www.w3.org/2000/svg" width="320" height="320" viewBox="0 0 320 320" role="img" aria-label="Retrato ilustrado ficticio de Rosa Medina">
  <defs><linearGradient id="b" x2="1" y2="1"><stop stop-color="#dff2ef"/><stop offset="1" stop-color="#8dcfc8"/></linearGradient></defs>
  <rect width="320" height="320" rx="36" fill="url(#b)"/><circle cx="160" cy="124" r="70" fill="#8b543e"/><circle cx="160" cy="134" r="57" fill="#efb38f"/><path d="M102 120c8-61 108-73 119 0-25-2-53-17-70-41-8 20-25 34-49 41Z" fill="#51362e"/><circle cx="140" cy="135" r="5" fill="#12283f"/><circle cx="182" cy="135" r="5" fill="#12283f"/><path d="M143 167c12 10 25 10 37 0" fill="none" stroke="#9b4534" stroke-width="5" stroke-linecap="round"/><path d="M65 320c5-82 42-121 95-121s91 39 96 121" fill="#0e7c7b"/><path d="M132 202l28 34 29-34" fill="#fffdf9"/><circle cx="258" cy="65" r="26" fill="#fffdf9"/><path d="M258 51v28M244 65h28" stroke="#e8765a" stroke-width="7" stroke-linecap="round"/>
</svg>
